<svg width="48" height="48" viewBox="0 0 48 48" fill="none" xmlns="http://www.w3.org/2000/svg">
<path d="M24 2.5C24 2.5 25.6771 3.5014 26.1133 3.73242C26.9858 4.19473 28.2572 4.82497 29.834 5.48633C32.9968 6.81277 37.3462 8.24554 42.1494 8.72168L43.5 8.85547V22.0967C43.4999 30.1802 38.6011 36.0134 33.9414 39.7344C31.597 41.6066 29.2601 42.9893 27.5127 43.9033C26.6372 44.3613 24 45.5 24 45.5C24 45.5 21.3628 44.3613 20.4873 43.9033C18.7399 42.9893 16.4031 41.6066 14.0586 39.7344C9.39883 36.0134 4.50011 30.1802 4.5 22.0967V8.85547L5.85059 8.72168C10.6538 8.24554 15.0033 6.81277 18.166 5.48633C19.743 4.82498 21.0142 4.19473 21.8867 3.73242C22.3229 3.5014 24 2.5 24 2.5ZM15.2461 17.04L9.80957 30H13.3916L18.8457 17.04H15.2461ZM14.7959 28.9736L15.1201 30H18.9004L16.8477 24.168L14.7959 28.9736ZM20.168 20.8203V30H23.6777V20.8203H20.168ZM19.1777 17.04L20.168 19.9199H24.2354C24.6554 19.9199 24.98 20.0104 25.208 20.1904C25.4358 20.3705 25.5974 20.7065 25.6934 21.1982C25.7893 21.6782 25.8379 22.3679 25.8379 23.2676C25.8379 24.5874 25.7417 25.5297 25.5498 26.0938C25.3579 26.6576 25.0339 26.9879 24.5781 27.084V30C25.7899 29.988 26.7622 29.7781 27.4941 29.3701C28.2379 28.9502 28.7773 28.2539 29.1133 27.2822C29.4493 26.2982 29.6182 24.9596 29.6182 23.2676C29.6181 21.6838 29.4437 20.4419 29.0957 19.542C28.7477 18.63 28.1954 17.9882 27.4395 17.6162C26.6836 17.2323 25.6879 17.0401 24.4521 17.04H19.1777ZM29.6035 17.04L32.5557 30H36.1201L33.3477 17.04H29.6035ZM36.1377 17.04L35.3633 22.1885L36.8936 29.334L39.6836 17.04H36.1377ZM9.80957 17.04V27.6602L13.3203 19.416V17.04H9.80957Z" fill="#155DFC"/>
</svg>
